<svg width="30" height="37" fill="none" xmlns="http://www.w3.org/2000/svg"><path d="M17.919 34.158h-6.157a1.99 1.99 0 0 1-1.988-2.075v-4.141a.515.515 0 1 1 1.03 0v4.14a.97.97 0 0 0 .571.965.968.968 0 0 0 .387.082h6.157a1.263 1.263 0 0 0 1.279-1.046v-4.141a.515.515 0 0 1 1.03 0v4.14a2.26 2.26 0 0 1-2.31 2.076Z" fill="#2D74FF"/><path d="M19.276 28.456h-8.55a1.034 1.034 0 0 1-1.011-.851 11.275 11.275 0 0 0-2.831-5.39 10.784 10.784 0 1 1 16.235 0 11.278 11.278 0 0 0-2.832 5.39 1.034 1.034 0 0 1-1.01.851ZM14.994 5.365a9.75 9.75 0 0 0-7.336 16.17 12.27 12.27 0 0 1 3.069 5.883l8.544.01a12.306 12.306 0 0 1 3.074-5.893 9.752 9.752 0 0 0-7.35-16.17ZM15 36.031a2.345 2.345 0 0 1-2.34-2.342.555.555 0 0 1 .514-.56h3.655a.515.515 0 0 1 .514.516 2.354 2.354 0 0 1-2.342 2.386Zm-1.224-1.872a1.312 1.312 0 0 0 2.45 0h-2.45ZM9.58 30.723a.515.515 0 0 1-.05-1.027l10.76-1.102a.516.516 0 0 1 .3.97.513.513 0 0 1-.197.053L9.633 30.72a.443.443 0 0 1-.052.003ZM9.66 32.838a.515.515 0 0 1-.052-1.03l10.682-1.094a.516.516 0 0 1 .3.97.513.513 0 0 1-.197.054l-10.68 1.098a.46.46 0 0 1-.053.002ZM14.96 3.14a.515.515 0 0 1-.514-.515V.515a.515.515 0 1 1 1.03 0v2.11a.515.515 0 0 1-.516.515ZM8.778 4.818a.515.515 0 0 1-.446-.257L7.278 2.735a.515.515 0 0 1 .891-.515l1.054 1.826a.515.515 0 0 1-.445.772ZM4.262 9.363a.51.51 0 0 1-.258-.069L2.18 8.24a.515.515 0 1 1 .515-.89L4.52 8.402a.515.515 0 0 1-.258.96ZM2.625 15.556H.515a.515.515 0 1 1 0-1.029h2.11a.514.514 0 1 1 0 1.03ZM2.478 22.793a.515.515 0 0 1-.258-.96l1.827-1.054a.515.515 0 0 1 .514.892l-1.826 1.054a.515.515 0 0 1-.257.068ZM21.224 4.818a.515.515 0 0 1-.445-.772L21.83 2.22a.515.515 0 0 1 .891.515L21.668 4.56a.515.515 0 0 1-.444.257ZM25.742 9.363a.515.515 0 0 1-.257-.96l1.826-1.055a.514.514 0 1 1 .514.891L26 9.294a.51.51 0 0 1-.258.069ZM29.485 15.556h-2.11a.515.515 0 1 1 0-1.029h2.11a.514.514 0 1 1 0 1.03ZM27.524 22.793a.518.518 0 0 1-.257-.068l-1.825-1.054a.515.515 0 0 1 .514-.892l1.826 1.054a.515.515 0 0 1-.258.96Z" fill="#2D74FF"/><path d="M12.783 28.456a.515.515 0 0 1-.501-.397L9.787 17.352a.515.515 0 0 1 .68-.599l2.333.866 1.934-1.169a.515.515 0 0 1 .533 0l1.935 1.17 2.331-.867a.515.515 0 0 1 .68.6L17.72 28.057a.515.515 0 1 1-1.002-.234l2.276-9.773-1.666.617a.519.519 0 0 1-.446-.042L15 17.492l-1.88 1.137a.515.515 0 0 1-.446.042l-1.666-.618 2.279 9.772a.515.515 0 0 1-.504.631Z" fill="#2D74FF"/></svg>