<svg aria-hidden="true" style="position:absolute;width:0;height:0;overflow:hidden" xmlns="http://www.w3.org/2000/svg"><defs><symbol id="icon-arr" viewBox="0 0 43 32"><path fill="none" stroke="#2d74ff" style="stroke:var(--color10, #2d74ff)" stroke-linejoin="round" stroke-linecap="round" stroke-width="5.333" d="M3.556 16h35.556M26.667 3.556 39.111 16 26.667 28.444"/></symbol><symbol id="icon-arr2" viewBox="0 0 43 32"><path fill="none" opacity=".5" stroke="#2d74ff" style="stroke:var(--color10, #2d74ff)" stroke-linejoin="round" stroke-linecap="round" stroke-width="5.333" d="M39.111 16H3.555M16 28.444 3.556 16 16 3.556"/></symbol><symbol id="icon-features3" viewBox="0 0 32 32"><path fill="#00ccf2" style="fill:var(--color11, #00ccf2)" opacity=".7" d="M12.85 5.947A9.1 9.1 0 0 1 8.29 8.96a1.109 1.109 0 1 0 .614 2.131 11.414 11.414 0 0 0 2.594-1.109l1.352-4.035z"/><path fill="#00ccf2" style="fill:var(--color11, #00ccf2)" opacity=".7" d="m16.006 12.766 1.207-3.448a7.126 7.126 0 0 0 5.651-1.561l.149-.124c.462-.384.558-1.071.19-1.547a1.109 1.109 0 0 0-1.587-.176l-.169.141c-.289.24-.6.443-.928.609-1.278.645-2.814.311-3.788-.738a2.629 2.629 0 0 0-4.469 1.127l-1.488 5.718h5.232z"/><path fill="#ffbe52" style="fill:var(--color12, #ffbe52)" opacity=".7" d="M10.774 12.766 6.403 24.225c-.284.744.2 1.559.989 1.666l.029.004a1.264 1.264 0 0 0 1.303-.682c1.236-2.45 4.885-9.664 4.885-9.664h1.482l-.756 4.75a1.158 1.158 0 0 0 2.26.493l1.42-5.102a2.306 2.306 0 0 0-2.221-2.924h-5.021z"/><path fill="#ff6371" style="fill:var(--color13, #ff6371)" opacity=".7" d="m31.375 13.901-5.387 1.084 1.171 1.171-3.744 3.744-2.656-2.656L8.418 29.583l1.793 1.792 10.548-10.547 2.656 2.656 5.537-5.536 1.339 1.339 1.084-5.386z"/><path fill="#fed2a4" style="fill:var(--color14, #fed2a4)" opacity=".7" d="M16.427 5.082a2.23 2.23 0 1 0 0-4.458 2.23 2.23 0 0 0 0 4.458z"/><path fill="#ff9357" style="fill:var(--color15, #ff9357)" opacity=".7" d="m5.483 17.455-4.62-4.619a.813.813 0 0 1 0-1.149l3.353-3.353a.813.813 0 0 1 1.149 0l4.62 4.619a.813.813 0 0 1 0 1.149l-3.353 3.353a.813.813 0 0 1-1.149 0z"/><path fill="#fff" style="fill:var(--color2, #fff)" opacity=".7" d="m4.74 13.619-.191-.191a.86.86 0 0 1 0-1.216l.799-.799 1.407 1.407-.799.799a.86.86 0 0 1-1.216 0z"/><path style="fill:var(--color1, #000)" opacity=".7" d="M31.817 13.459a.625.625 0 0 0-.565-.171l-5.387 1.084a.627.627 0 0 0-.319 1.055l.729.729-2.86 2.86-2.214-2.214a.625.625 0 0 0-.884 0L17.6 19.519l1.019-3.662a2.906 2.906 0 0 0-.49-2.558 2.902 2.902 0 0 0-1.306-.973l.815-2.327a7.77 7.77 0 0 0 5.626-1.761l.149-.124a1.74 1.74 0 0 0 .285-2.409c-.291-.376-.71-.612-1.182-.664s-.933.086-1.299.39l-.169.141a4.283 4.283 0 0 1-.81.531c-.964.486-2.167.27-2.967-.522a2.859 2.859 0 0 0 2.011-2.726c0-1.573-1.28-2.853-2.854-2.853s-2.854 1.28-2.854 2.853c0 .626.203 1.205.546 1.676a3.252 3.252 0 0 0-1.68.948.75.75 0 0 0-.074.075 8.482 8.482 0 0 1-4.248 2.807 1.725 1.725 0 0 0-1.029.815L5.808 7.895a1.44 1.44 0 0 0-2.033 0L.422 11.248c-.272.272-.421.632-.421 1.016s.15.745.421 1.016l4.619 4.619c.272.271.633.421 1.017.421s.745-.15 1.017-.421l1.736-1.736-.823 2.158a.626.626 0 0 0 1.168.446l2.05-5.375h4.59c.53 0 1.018.242 1.338.664s.423.957.281 1.467l-1.42 5.102a.534.534 0 0 1-.918.203.527.527 0 0 1-.121-.43l.756-4.75a.623.623 0 0 0-.617-.723h-1.482a.625.625 0 0 0-.558.343c-.036.072-3.663 7.242-4.885 9.664a.642.642 0 0 1-.661.344l-.03-.004a.611.611 0 0 1-.49-.824l.385-1.01a.626.626 0 0 0-1.168-.446l-.385 1.01c-.204.534-.153 1.122.139 1.614s.784.817 1.35.894l.03.004a1.89 1.89 0 0 0 1.945-1.02c1.068-2.116 3.971-7.856 4.711-9.32h.365l-.641 4.027a1.779 1.779 0 0 0 1.219 1.978l-6.963 6.962a.625.625 0 0 0 0 .884l1.793 1.792a.623.623 0 0 0 .884 0l3.447-3.446a.625.625 0 0 0-.884-.884l-3.005 3.004-.909-.909 11.457-11.456 2.214 2.214a.625.625 0 0 0 .884 0l3.744-3.744a.625.625 0 0 0 0-.884l-.346-.346 3.322-.668-.669 3.322-.514-.514a.625.625 0 0 0-.884 0L23.415 22.6l-2.214-2.214a.625.625 0 0 0-.884 0l-3.566 3.565a.625.625 0 0 0 .884.884l3.124-3.123 2.214 2.214c.244.244.64.244.884 0l5.095-5.094.897.897a.624.624 0 0 0 1.055-.319l1.084-5.386a.625.625 0 0 0-.171-.565zM16.427 1.25c.884 0 1.604.719 1.604 1.603a1.605 1.605 0 0 1-3.208 0c0-.884.719-1.603 1.604-1.603zm-6.185 11.077-.761-.761c.361-.118.716-.253 1.064-.404l-.303 1.164zm-2.109-2.168a.485.485 0 0 1 .331-.599 9.733 9.733 0 0 0 2.849-1.35l-.353 1.357a10.8 10.8 0 0 1-2.274.934.482.482 0 0 1-.328-.056l-.183-.183a.515.515 0 0 1-.044-.102zM4.658 8.777a.187.187 0 0 1 .266 0l2.278 2.278c.106.144.232.27.374.374l1.967 1.967a.188.188 0 0 1 0 .265l-1.235 1.234-1.373-1.373.262-.261a.625.625 0 0 0 0-.884L5.79 10.97a.625.625 0 0 0-.884 0l-.262.261-1.221-1.22 1.235-1.234zm.856 4.399a.234.234 0 0 1-.332 0l-.191-.191a.234.234 0 0 1 0-.332l.357-.357.523.523-.357.357zm.676 3.838c-.045.045-.097.055-.133.055s-.087-.01-.133-.055l-4.619-4.619c-.045-.045-.055-.097-.055-.133s.01-.087.055-.133l1.235-1.234 1.279 1.279a1.478 1.478 0 0 0 .288 1.695l.191.191c.28.28.653.435 1.05.435.227 0 .446-.051.645-.147l1.431 1.431-1.235 1.234zm8.928-4.873h-3.536l1.284-4.935a2.005 2.005 0 0 1 3.406-.86c1.174 1.265 3.036 1.623 4.528.871a5.548 5.548 0 0 0 1.046-.686l.169-.141c.102-.085.231-.124.363-.109s.249.08.33.186c.157.203.114.51-.095.684l-.149.124a6.52 6.52 0 0 1-5.155 1.424.625.625 0 0 0-.686.411l-1.061 3.03h-.445z"/><path style="fill:var(--color1, #000)" opacity=".7" d="M15.436 25.548c-.164 0-.326.067-.442.183a.63.63 0 0 0 0 .884.627.627 0 0 0 1.067-.442.63.63 0 0 0-.183-.442.63.63 0 0 0-.442-.183zM7.678 21.507c.164 0 .326-.067.442-.183a.63.63 0 0 0 0-.884c-.117-.116-.278-.183-.442-.183s-.326.067-.443.183a.627.627 0 0 0 .443 1.067z"/></symbol><symbol id="icon-features2" viewBox="0 0 32 32"><path fill="#4d4d99" style="fill:var(--color16, #4d4d99)" d="M17.875 32h-3.75a.938.938 0 0 1-.936-.879l-.082-1.375a14.053 14.053 0 0 1-4.779-1.983l-.989.872a.938.938 0 0 1-1.284-.04l-2.651-2.651a.938.938 0 0 1-.04-1.284l.873-.989a14.084 14.084 0 0 1-1.985-4.778l-1.374-.082a.937.937 0 0 1-.879-.936v-3.75c0-.495.385-.905.879-.936l1.374-.082a14.076 14.076 0 0 1 1.985-4.778l-.873-.989a.94.94 0 0 1 .04-1.284l2.651-2.651a.94.94 0 0 1 1.284-.04l.989.873a14.061 14.061 0 0 1 4.779-1.983L13.189.88a.938.938 0 0 1 .936-.879h3.75c.494 0 .905.385.936.879l.082 1.375a14.053 14.053 0 0 1 4.779 1.983l.989-.873a.942.942 0 0 1 1.284.04l2.651 2.651c.35.35.368.912.04 1.284l-.873.989a14.084 14.084 0 0 1 1.985 4.778l1.374.082c.494.031.879.44.879.936v3.75a.937.937 0 0 1-.879.936l-1.374.082a14.076 14.076 0 0 1-1.985 4.778l.873.989a.94.94 0 0 1-.04 1.284l-2.651 2.651a.94.94 0 0 1-1.284.04l-.989-.872a14.061 14.061 0 0 1-4.779 1.983l-.082 1.375a.938.938 0 0 1-.936.879z"/><path fill="#292966" style="fill:var(--color17, #292966)" d="m31.121 13.189-1.374-.082a14.076 14.076 0 0 0-1.985-4.778l.873-.989a.94.94 0 0 0-.04-1.284l-2.651-2.651a.941.941 0 0 0-1.284-.04l-.989.873a14.061 14.061 0 0 0-4.779-1.983L18.81.88a.938.938 0 0 0-.936-.879h-1.875v32h1.875a.938.938 0 0 0 .936-.879l.082-1.375a14.053 14.053 0 0 0 4.779-1.983l.989.872a.94.94 0 0 0 1.284-.04l2.651-2.651a.938.938 0 0 0 .04-1.284l-.873-.989a14.084 14.084 0 0 0 1.985-4.778l1.374-.082a.937.937 0 0 0 .879-.936v-3.75a.937.937 0 0 0-.879-.936z"/><path fill="#9ff" style="fill:var(--color18, #9ff)" d="M13.188 21.625a.937.937 0 0 0-.938-.937.94.94 0 0 1-.938-.938v-1.875c0-.723-.282-1.376-.731-1.875a2.79 2.79 0 0 0 .731-1.875V12.25a.94.94 0 0 1 .938-.938.937.937 0 1 0 0-1.875 2.815 2.815 0 0 0-2.812 2.812v1.875a.94.94 0 0 1-.938.938.937.937 0 1 0 0 1.876.94.94 0 0 1 .938.938v1.875a2.815 2.815 0 0 0 2.812 2.812.937.937 0 0 0 .938-.938z"/><path fill="#66e6ff" style="fill:var(--color19, #66e6ff)" d="M24.438 16a.937.937 0 0 0-.938-.938.94.94 0 0 1-.938-.938v-1.875a2.815 2.815 0 0 0-2.812-2.812.937.937 0 1 0 0 1.875.94.94 0 0 1 .938.938v1.875c0 .723.282 1.376.732 1.875a2.79 2.79 0 0 0-.732 1.875v1.875a.94.94 0 0 1-.938.938.937.937 0 1 0 0 1.875 2.815 2.815 0 0 0 2.812-2.812v-1.875a.94.94 0 0 1 .938-.938.937.937 0 0 0 .938-.938z"/><path fill="#9ff" style="fill:var(--color18, #9ff)" d="M14.125 16.938a.938.938 0 1 0 0-1.876.938.938 0 0 0 0 1.876z"/><path fill="#66e6ff" style="fill:var(--color19, #66e6ff)" d="M17.875 16.938a.937.937 0 1 0 0-1.874.937.937 0 0 0 0 1.874z"/></symbol><symbol id="icon-features1" viewBox="0 0 32 32"><path fill="#e0e0e2" style="fill:var(--color20, #e0e0e2)" opacity=".7" d="M29.322 6.477H.003s.025 17.464 0 18.43v.025c.025.93.406 1.8 1.073 2.45a3.535 3.535 0 0 0 2.483 1.01h15.486a.47.47 0 0 0 .332-.138l10.277-10.277a.471.471 0 0 0 .138-.332V6.947a.47.47 0 0 0-.47-.47z"/><path fill="#c6c5ca" style="fill:var(--color21, #c6c5ca)" opacity=".7" d="M8.498 18.758h1.919l1.539-4.829 7.452-7.452h-1.753l-7.452 7.452-1.705 4.829zM29.322 6.477h-1.566v13.398l1.898-1.898a.471.471 0 0 0 .138-.332V6.947a.47.47 0 0 0-.47-.47z"/><path fill="#3c5156" style="fill:var(--color22, #3c5156)" opacity=".7" d="M21.4 19.143H8.393a.47.47 0 0 1 0-.94H21.4a.47.47 0 0 1 0 .94z"/><path fill="#919191" style="fill:var(--color23, #919191)" opacity=".7" d="M3.569 21.184c.203 0 .401.018.595.05V1.831a.47.47 0 0 0-.47-.47A3.698 3.698 0 0 0 0 5.055v19.237a3.604 3.604 0 0 1 3.569-3.108z"/><path fill="#ffd039" style="fill:var(--color24, #ffd039)" opacity=".7" d="m25.497 6.029-2.821-2.821a.471.471 0 0 0-.664 0L11.624 13.596a.36.36 0 0 0-.018.02l3.536 3.432L25.497 6.693a.468.468 0 0 0 0-.664z"/><path fill="#ffa304" style="fill:var(--color25, #ffa304)" opacity=".7" d="m13.851 15.796 1.29 1.253L25.496 6.694a.47.47 0 0 0 0-.664l-.94-.94L13.85 15.797z"/><path fill="#ffc89f" style="fill:var(--color26, #ffc89f)" opacity=".7" d="M11.607 13.618a.456.456 0 0 0-.096.16l-1.537 4.355a.47.47 0 0 0 .599.599l4.355-1.537a.47.47 0 0 0 .209-.149l-3.53-3.427z"/><path fill="#f7b081" style="fill:var(--color27, #f7b081)" opacity=".7" d="M10.417 18.758a.47.47 0 0 0 .156-.027l4.355-1.537a.47.47 0 0 0 .209-.149l-1.288-1.25-3.492 1.25-.384 1.088a.47.47 0 0 0 .443.626z"/><path fill="#3c5156" style="fill:var(--color22, #3c5156)" opacity=".7" d="M10.417 18.758a.47.47 0 0 0 .156-.027l2.746-.97-2.381-2.364-.965 2.734a.47.47 0 0 0 .443.626z"/><path fill="#304144" style="fill:var(--color28, #304144)" opacity=".7" d="m12.004 16.455-1.646.589-.384 1.088a.469.469 0 0 0 .599.598l2.746-.969-1.316-1.307z"/><path fill="#ff6137" style="fill:var(--color29, #ff6137)" opacity=".7" d="m27.023 4.503-2.821-2.821a.47.47 0 0 0-.664 0l-1.857 1.857 3.484 3.486 1.858-1.858a.468.468 0 0 0 0-.664z"/><path fill="#e04f32" style="fill:var(--color30, #e04f32)" opacity=".7" d="m23.893 5.753 1.272 1.272 1.858-1.858a.468.468 0 0 0 0-.664l-.94-.94-2.19 2.19z"/><path fill="#546f7a" style="fill:var(--color31, #546f7a)" opacity=".7" d="m28.286 1.879-1.46-1.46c-.27-.27-.63-.419-1.013-.419s-.742.149-1.013.419L23.199 2.02l3.491 3.479 1.595-1.595c.27-.27.419-.63.419-1.013s-.149-.742-.419-1.013z"/><path fill="#475d63" style="fill:var(--color32, #475d63)" opacity=".7" d="m23.205 2.015-.006.006 1.042 1.038-1.036-1.043zM28.286 1.879 27.134.727c.188.25.292.554.292.874 0 .387-.149.75-.419 1.024l-1.588 1.606 1.273 1.268 1.595-1.595c.27-.27.419-.63.419-1.013s-.149-.742-.42-1.013z"/><path fill="#ffca10" style="fill:var(--color33, #ffca10)" opacity=".7" d="M31.71 15.003a.468.468 0 0 0-.512.102L15.207 31.096a.472.472 0 0 0 .332.802H31.53a.47.47 0 0 0 .47-.47V15.437a.47.47 0 0 0-.29-.434zm-8.708 13.095 5.133-5.133v5.133h-5.133z"/><path fill="#ffa304" style="fill:var(--color25, #ffa304)" opacity=".7" d="M31.71 15.003a.468.468 0 0 0-.512.102l-1.234 1.234v15.559h1.566a.47.47 0 0 0 .47-.47V15.437a.47.47 0 0 0-.29-.434z"/><path fill="#c96e14" style="fill:var(--color34, #c96e14)" opacity=".7" d="M32 20.714h-1.806a.47.47 0 0 0 0 .94H32v-.939zM32 23.069h-1.806a.47.47 0 0 0 0 .94H32v-.939zM32 25.424h-1.806a.47.47 0 0 0 0 .94H32v-.939zM32 27.778h-1.806a.47.47 0 0 0 0 .94H32v-.939z"/></symbol><symbol id="icon-video" viewBox="0 0 22 32"><path fill="none" stroke="#fff" style="stroke:var(--color2, #fff)" stroke-width="2.667" d="M2 3.298 24 16 2 28.702V3.299z"/></symbol><symbol id="icon-hero3" viewBox="0 0 32 32"><path fill="none" stroke="#2d74ff" style="stroke:var(--color10, #2d74ff)" stroke-linejoin="round" stroke-linecap="round" stroke-width="2" d="M31 15.167c.006 2.2-.508 4.37-1.5 6.333a14.163 14.163 0 0 1-12.667 7.833c-2.2.006-4.37-.508-6.333-1.5L1 31l3.167-9.5a13.957 13.957 0 0 1-1.5-6.333A14.164 14.164 0 0 1 10.5 2.5 13.957 13.957 0 0 1 16.833 1h.833a14.135 14.135 0 0 1 13.333 13.333v.833z"/></symbol><symbol id="icon-hero1" viewBox="0 0 32 32"><path fill="none" stroke="#2d74ff" style="stroke:var(--color10, #2d74ff)" stroke-linejoin="round" stroke-linecap="round" stroke-width="2" d="M31 1 14.5 17.5M31 1 20.5 31l-6-13.5-13.5-6L31 1z"/></symbol><symbol id="icon-hero2" viewBox="0 0 26 32"><path fill="#2d74ff" style="fill:var(--color10, #2d74ff)" d="M15.497 29.542h-5.325a1.728 1.728 0 0 1-1.243-.53 1.716 1.716 0 0 1-.477-1.265v-3.581a.442.442 0 0 1 .445-.445.447.447 0 0 1 .445.445v3.581a.822.822 0 0 0 .217.634.837.837 0 0 0 .613.272h5.325a1.09 1.09 0 0 0 1.106-.906v-3.581a.442.442 0 0 1 .445-.445.447.447 0 0 1 .445.445v3.581a1.95 1.95 0 0 1-1.996 1.795z"/><path fill="#2d74ff" style="fill:var(--color10, #2d74ff)" d="M16.671 24.611H9.276a.897.897 0 0 1-.875-.737 9.751 9.751 0 0 0-2.448-4.662A9.33 9.33 0 0 1 4.48 9.217a9.33 9.33 0 0 1 8.492-5.471 9.327 9.327 0 0 1 7.02 15.466 9.755 9.755 0 0 0-2.45 4.662.89.89 0 0 1-.874.736zM12.968 4.64a8.436 8.436 0 0 0-6.344 13.985 10.609 10.609 0 0 1 2.654 5.089l7.389.008a10.644 10.644 0 0 1 2.659-5.096 8.44 8.44 0 0 0 1.442-8.783 8.433 8.433 0 0 0-7.8-5.201zM12.973 31.162a2.032 2.032 0 0 1-2.025-2.025.48.48 0 0 1 .445-.484h3.161a.442.442 0 0 1 .445.445 2.035 2.035 0 0 1-2.027 2.065zm-1.059-1.619a1.131 1.131 0 0 0 1.06.729 1.134 1.134 0 0 0 1.06-.729h-2.119zM8.286 26.571a.446.446 0 0 1-.045-.889l9.307-.953a.441.441 0 0 1 .449.227.456.456 0 0 1 .034.345.451.451 0 0 1-.224.265.44.44 0 0 1-.171.047l-9.307.954a.337.337 0 0 1-.044.003zM8.355 28.401a.45.45 0 0 1-.467-.423.45.45 0 0 1 .423-.467l9.238-.946a.441.441 0 0 1 .449.227.438.438 0 0 1 .034.345.451.451 0 0 1-.224.265.44.44 0 0 1-.171.047l-9.237.949c-.015.002-.03.002-.045.002zM12.939 2.715a.442.442 0 0 1-.445-.445V.445A.442.442 0 0 1 12.939 0a.442.442 0 0 1 .445.445V2.27a.442.442 0 0 1-.445.445zM7.592 4.167a.448.448 0 0 1-.386-.222l-.911-1.579c-.058-.102-.073-.223-.043-.337s.105-.21.207-.269a.444.444 0 0 1 .606.16l.912 1.579a.445.445 0 0 1-.385.668zM3.686 8.098a.439.439 0 0 1-.223-.06l-1.579-.912a.45.45 0 0 1-.231-.446.44.44 0 0 1 .333-.377.44.44 0 0 1 .343.053l1.579.912a.45.45 0 0 1 .208.501.442.442 0 0 1-.43.33zM2.27 13.454H.445A.442.442 0 0 1 0 13.009a.442.442 0 0 1 .445-.445H2.27a.442.442 0 0 1 .445.445.447.447 0 0 1-.445.445zM2.143 19.713a.444.444 0 0 1-.411-.616.445.445 0 0 1 .189-.215L3.5 17.97a.461.461 0 0 1 .338-.045.446.446 0 0 1 .108.816l-1.579.912a.445.445 0 0 1-.223.059zM18.356 4.167a.443.443 0 0 1-.444-.446.44.44 0 0 1 .06-.222l.91-1.579a.446.446 0 0 1 .813.109.446.446 0 0 1-.043.337l-.912 1.579a.443.443 0 0 1-.384.223z"/><path fill="#2d74ff" style="fill:var(--color10, #2d74ff)" d="M22.264 8.098a.444.444 0 0 1-.411-.616.445.445 0 0 1 .189-.215l1.579-.912a.45.45 0 0 1 .503.023.44.44 0 0 1 .159.477.443.443 0 0 1-.217.27l-1.579.912a.446.446 0 0 1-.223.06zM25.501 13.454h-1.825a.442.442 0 0 1-.445-.445.442.442 0 0 1 .445-.445h1.825a.442.442 0 0 1 .445.445.447.447 0 0 1-.445.445zM23.805 19.713a.448.448 0 0 1-.223-.059l-1.578-.912a.448.448 0 0 1-.208-.27.438.438 0 0 1 .045-.338.437.437 0 0 1 .271-.208.44.44 0 0 1 .338.045l1.578.912a.45.45 0 0 1 .208.501.442.442 0 0 1-.43.33zM11.055 24.611a.443.443 0 0 1-.434-.345l-2.158-9.259a.444.444 0 0 1 .353-.539.441.441 0 0 1 .236.02l2.017.749 1.673-1.011a.446.446 0 0 1 .46 0l1.674 1.011 2.016-.749a.441.441 0 0 1 .449.084.443.443 0 0 1 .14.435l-2.156 9.259a.445.445 0 0 1-.867-.201l1.968-8.453-1.441.534a.455.455 0 0 1-.386-.036l-1.627-.981-1.627.983a.455.455 0 0 1-.386.036l-1.441-.534 1.971 8.451a.448.448 0 0 1-.436.546z"/></symbol><symbol id="icon-embed" viewBox="0 0 32 32"><path d="m18 23 3 3 10-10L21 6l-3 3 7 7zM14 9l-3-3L1 16l10 10 3-3-7-7z"/></symbol><symbol id="icon-hero-v1" viewBox="0 0 24 32"><path fill="#2d74ff" style="fill: var(--color10, #2d74ff)" d="M27 14.268c0.602 0.352 1 0.996 1 1.732s-0.398 1.38-0.99 1.727l-0.009 0.005-24 13.856c-0.287 0.168-0.632 0.268-1 0.268-1.105 0-2-0.895-2-2v0-27.712c0-1.105 0.895-2 2-2 0.368 0 0.713 0.1 1.009 0.273l-0.009-0.005 24 13.856z"></path></symbol></defs></svg>