<svg width="20" height="20" fill="none" xmlns="http://www.w3.org/2000/svg"><path d="M19.658 3.577A3.641 3.641 0 0 0 16.423.342a60.41 60.41 0 0 0-12.846 0A3.642 3.642 0 0 0 .342 3.577a60.402 60.402 0 0 0 0 12.845 3.642 3.642 0 0 0 3.235 3.235c4.278.456 8.568.456 12.846 0a3.641 3.641 0 0 0 3.235-3.235 60.408 60.408 0 0 0 0-12.845Z" fill="url(#a)"/><path d="M18.57 4.3a3.231 3.231 0 0 0-2.87-2.87 53.627 53.627 0 0 0-11.4 0A3.232 3.232 0 0 0 1.43 4.3a53.619 53.619 0 0 0 0 11.399 3.231 3.231 0 0 0 2.87 2.87c3.797.405 7.604.405 11.4 0a3.231 3.231 0 0 0 2.87-2.87 53.588 53.588 0 0 0 0-11.398Z" fill="url(#b)"/><path d="M.3 16.006c.013.139.027.277.042.415a3.642 3.642 0 0 0 3.235 3.235c4.278.456 8.568.456 12.845 0a3.641 3.641 0 0 0 3.235-3.235c.015-.138.03-.276.043-.415H.3Z" fill="url(#c)"/><path d="M19.657 16.423c.246-2.298.36-4.6.34-6.902l-4.57-4.572c-.572-.651-1.406-1.058-2.386-1.094a86.13 86.13 0 0 0-6.055 0c-1.674.058-2.845 1.184-3.145 2.838-.053.292-.085.588-.127.882v4.85c.023.156.057.313.068.47.067 1.007.48 1.869 1.143 2.452l4.652 4.652a60.483 60.483 0 0 0 6.846-.341 3.642 3.642 0 0 0 3.235-3.235Z" fill="url(#d)"/><path d="M19.657 16.421a3.641 3.641 0 0 1-3.234 3.235c-2.28.243-4.564.357-6.846.34l-4.645-4.644c.538.471 1.24.758 2.055.789 2.015.076 4.038.074 6.054 0 1.823-.065 3.142-1.414 3.199-3.237a92.62 92.62 0 0 0 0-5.812c-.026-.841-.321-1.581-.81-2.141l4.568 4.568a60.568 60.568 0 0 1-.34 6.902Z" fill="url(#e)"/><path d="M12.36 7.835a3.203 3.203 0 1 0-4.526 4.525l7.412 7.411c.393-.034.785-.072 1.177-.114a3.642 3.642 0 0 0 3.235-3.235c.042-.392.08-.784.114-1.176L12.36 7.835Z" fill="url(#f)"/><path d="m19.961 12.154-5.965-5.965a.76.76 0 1 0-1.066 1.067l6.925 6.925c.047-.675.082-1.351.106-2.027Z" fill="url(#g)"/><path d="M3.714 7.575c.042-.294.074-.59.127-.882.3-1.654 1.471-2.78 3.145-2.837a86.13 86.13 0 0 1 6.055 0c1.822.065 3.142 1.414 3.199 3.237.06 1.936.06 3.877 0 5.813-.057 1.823-1.376 3.172-3.2 3.238a82.302 82.302 0 0 1-6.053-.001c-1.823-.069-3.083-1.421-3.205-3.247-.01-.158-.045-.315-.068-.472V7.575Zm6.288 7.488c.922 0 1.846.028 2.767-.006 1.444-.054 2.333-.916 2.367-2.359.042-1.798.042-3.599 0-5.397-.034-1.443-.923-2.325-2.367-2.356a130.618 130.618 0 0 0-5.5 0c-1.433.03-2.324.895-2.363 2.322-.05 1.82-.05 3.645 0 5.465.039 1.427.93 2.272 2.363 2.325.91.034 1.822.006 2.733.006Z" fill="url(#h)"/><path d="M3.714 7.575c.042-.294.074-.59.127-.882.3-1.654 1.471-2.78 3.145-2.837a86.13 86.13 0 0 1 6.055 0c1.822.065 3.142 1.414 3.199 3.237.06 1.936.06 3.877 0 5.813-.057 1.823-1.376 3.172-3.2 3.238a82.302 82.302 0 0 1-6.053-.001c-1.823-.069-3.083-1.421-3.205-3.247-.01-.158-.045-.315-.068-.472V7.575Zm6.288 7.488c.922 0 1.846.028 2.767-.006 1.444-.054 2.333-.916 2.367-2.359.042-1.798.042-3.599 0-5.397-.034-1.443-.923-2.325-2.367-2.356a130.618 130.618 0 0 0-5.5 0c-1.433.03-2.324.895-2.363 2.322-.05 1.82-.05 3.645 0 5.465.039 1.427.93 2.272 2.363 2.325.91.034 1.822.006 2.733.006Z" fill="#fff"/><path d="M10 6.796a3.203 3.203 0 1 0 0 6.407 3.203 3.203 0 0 0 0-6.407Zm0 5.304a2.1 2.1 0 1 1 0-4.2 2.1 2.1 0 0 1 0 4.2ZM14.153 6.65a.762.762 0 1 1-1.524 0 .762.762 0 0 1 1.524 0Z" fill="#fff"/><defs><linearGradient id="b" x1="7.671" y1="8.69" x2="-26.211" y2="-10.37" gradientUnits="userSpaceOnUse"><stop stop-color="#A1B5D8" stop-opacity="0"/><stop offset=".309" stop-color="#90A2BD" stop-opacity=".31"/><stop offset=".755" stop-color="#7C8B9C" stop-opacity=".757"/><stop offset="1" stop-color="#748290"/></linearGradient><linearGradient id="c" x1="10" y1="17.653" x2="10" y2="20.771" gradientUnits="userSpaceOnUse"><stop stop-color="#FAE100" stop-opacity="0"/><stop offset=".307" stop-color="#FCA800" stop-opacity=".306"/><stop offset=".627" stop-color="#FE7300" stop-opacity=".627"/><stop offset=".869" stop-color="#FF5200" stop-opacity=".867"/><stop offset="1" stop-color="#FF4500"/></linearGradient><linearGradient id="d" x1="8.862" y1="8.835" x2="3.913" y2="3.885" gradientUnits="userSpaceOnUse"><stop stop-color="#833AB4" stop-opacity="0"/><stop offset="1" stop-color="#833AB4"/></linearGradient><linearGradient id="e" x1="13.707" y1="18.291" x2="11.237" y2="6.645" gradientUnits="userSpaceOnUse"><stop stop-color="#833AB4" stop-opacity="0"/><stop offset="1" stop-color="#833AB4"/></linearGradient><linearGradient id="f" x1="14.647" y1="14.647" x2="4.725" y2="4.724" gradientUnits="userSpaceOnUse"><stop stop-color="#833AB4" stop-opacity="0"/><stop offset="1" stop-color="#833AB4"/></linearGradient><linearGradient id="g" x1="15.383" y1="8.643" x2="12.102" y2="5.362" gradientUnits="userSpaceOnUse"><stop stop-color="#833AB4" stop-opacity="0"/><stop offset="1" stop-color="#833AB4"/></linearGradient><linearGradient id="h" x1="13.971" y1="6.057" x2="5.881" y2="14.148" gradientUnits="userSpaceOnUse"><stop stop-color="#833AB4"/><stop offset=".092" stop-color="#9C3495"/><stop offset=".293" stop-color="#DC2546"/><stop offset=".392" stop-color="#FD1D1D"/><stop offset=".559" stop-color="#FC6831"/><stop offset=".689" stop-color="#FC9B40"/><stop offset=".752" stop-color="#FCAF45"/><stop offset=".781" stop-color="#FDB750"/><stop offset=".866" stop-color="#FECB6A"/><stop offset=".942" stop-color="#FFD87A"/><stop offset="1" stop-color="#FFDC80"/></linearGradient><radialGradient id="a" cx="0" cy="0" r="1" gradientUnits="userSpaceOnUse" gradientTransform="matrix(22.0565 0 0 22.0556 4.1 17.478)"><stop stop-color="#FAE100"/><stop offset=".054" stop-color="#FADC04"/><stop offset=".117" stop-color="#FBCE0E"/><stop offset=".183" stop-color="#FCB720"/><stop offset=".251" stop-color="#FE9838"/><stop offset=".305" stop-color="#FF7950"/><stop offset=".492" stop-color="#FF1C74"/><stop offset="1" stop-color="#6C1CD1"/></radialGradient></defs></svg>