<svg width="78" height="75" fill="none" xmlns="http://www.w3.org/2000/svg"><path d="M64.32 22.593 45.237 37.615l-15.63 5.019-20.014-18.57 54.725-1.47Z" fill="#73E6D3"/><path d="m24.295 43.699 1.734 3.004-12.117 6.996-1.735-3.004 12.118-6.996ZM20.826 37.69l1.734 3.004-9.013 5.204-1.735-3.005 9.014-5.203Z" fill="#F3F5F9"/><path d="m27.764 49.708 1.734 3.004-9.013 5.204-1.735-3.005 9.014-5.203Z" fill="#E1E6F0"/><path d="m64.32 22.594-34.712 20.04 6.074 26.618L64.32 22.594Z" fill="#51CCCC"/><path d="m25.162 45.2.867 1.502-12.117 6.996-.868-1.502L25.162 45.2Z" fill="#E1E6F0"/></svg>