<svg width="1142" height="364" fill="none" xmlns="http://www.w3.org/2000/svg"><g opacity=".6" stroke="#000" stroke-opacity=".03"><path d="M1 73.425c91.755-54.653 322.351-131.17 510.691 0 235.425 163.962 545.099 73.601 629.309 0"/><path d="M1 81.324c91.755-54.654 322.351-131.17 510.691 0 235.425 163.962 545.099 73.6 629.309 0"/><path d="M1 89.223c91.755-54.654 322.351-131.17 510.691 0 235.425 163.962 545.099 73.601 629.309 0"/><path d="M1 97.122c91.755-54.654 322.351-131.17 510.691 0 235.425 163.962 545.099 73.601 629.309 0"/><path d="M1 105.02c91.755-54.654 322.351-131.17 510.691 0 235.425 163.962 545.099 73.6 629.309 0"/><path d="M1 112.919c91.755-54.654 322.351-131.17 510.691 0 235.425 163.962 545.099 73.6 629.309 0"/><path d="M1 120.818c91.755-54.654 322.351-131.17 510.691 0 235.425 163.962 545.099 73.6 629.309 0"/><path d="M1 128.717c91.755-54.655 322.351-131.17 510.691 0 235.425 163.961 545.099 73.6 629.309 0"/><path d="M1 136.615c91.755-54.654 322.351-131.17 510.691 0 235.425 163.962 545.099 73.601 629.309 0"/><path d="M1 144.514c91.755-54.654 322.351-131.17 510.691 0 235.425 163.962 545.099 73.6 629.309 0"/><path d="M1 152.413c91.755-54.654 322.351-131.17 510.691 0 235.425 163.962 545.099 73.601 629.309 0"/><path d="M1 160.311c91.755-54.654 322.351-131.17 510.691 0 235.425 163.962 545.099 73.601 629.309 0"/><path d="M1 168.21c91.755-54.654 322.351-131.17 510.691 0 235.425 163.962 545.099 73.6 629.309 0"/><path d="M1 176.109c91.755-54.654 322.351-131.17 510.691 0 235.425 163.962 545.099 73.6 629.309 0"/><path d="M1 184.008c91.755-54.654 322.351-131.17 510.691 0 235.425 163.962 545.099 73.6 629.309 0"/><path d="M1 191.906c91.755-54.654 322.351-131.17 510.691 0 235.425 163.962 545.099 73.601 629.309 0"/><path d="M1 199.805c91.755-54.654 322.351-131.17 510.691 0 235.425 163.962 545.099 73.601 629.309 0"/><path d="M1 207.704c91.755-54.654 322.351-131.17 510.691 0 235.425 163.962 545.099 73.6 629.309 0"/><path d="M1 215.602c91.755-54.654 322.351-131.17 510.691 0 235.425 163.962 545.099 73.601 629.309 0"/><path d="M1 223.501c91.755-54.654 322.351-131.17 510.691 0 235.425 163.962 545.099 73.601 629.309 0"/><path d="M1 231.4c91.755-54.654 322.351-131.17 510.691 0 235.425 163.962 545.099 73.6 629.309 0"/><path d="M1 239.299c91.755-54.654 322.351-131.17 510.691 0 235.425 163.962 545.099 73.6 629.309 0"/><path d="M1 247.197c91.755-54.654 322.351-131.169 510.691 0 235.425 163.962 545.099 73.601 629.309 0"/><path d="M1 255.096c91.755-54.654 322.351-131.169 510.691 0 235.425 163.962 545.099 73.601 629.309 0"/><path d="M1 262.995c91.755-54.654 322.351-131.169 510.691 0 235.425 163.962 545.099 73.601 629.309 0"/><path d="M1 270.893c91.755-54.654 322.351-131.17 510.691 0 235.425 163.962 545.099 73.6 629.309 0"/></g></svg>