<svg width="20" height="20" fill="none" xmlns="http://www.w3.org/2000/svg"><path d="M16.423 19.658a60.414 60.414 0 0 1-12.846 0 3.642 3.642 0 0 1-3.235-3.235 60.407 60.407 0 0 1 0-12.846A3.642 3.642 0 0 1 3.577.342a60.407 60.407 0 0 1 12.846 0 3.642 3.642 0 0 1 3.235 3.235 60.413 60.413 0 0 1 0 12.846 3.641 3.641 0 0 1-3.235 3.235Z" fill="url(#a)"/><path d="M18.57 4.3a3.231 3.231 0 0 0-2.87-2.87 53.624 53.624 0 0 0-11.4 0A3.232 3.232 0 0 0 1.43 4.3a53.623 53.623 0 0 0 0 11.4 3.232 3.232 0 0 0 2.87 2.87c3.797.405 7.604.405 11.4 0a3.231 3.231 0 0 0 2.87-2.87 53.593 53.593 0 0 0 0-11.4Z" fill="url(#b)"/><path d="m.3 16.008.043.415a3.642 3.642 0 0 0 3.235 3.234 60.4 60.4 0 0 0 12.845 0 3.641 3.641 0 0 0 3.235-3.235l.043-.414H.3Z" fill="url(#c)"/><path d="m19.996 9.297-4.151-4.15a4.956 4.956 0 0 1-1.185.494 3.387 3.387 0 0 1-.417.086 2.578 2.578 0 0 0-4.372 2.316c-.594-.009-2.526-.168-4.368-1.747l-.87-.869s-1.019 1.779.48 3.129c.066.073.138.146.217.217l.02.021c-.197-.013-.789-.072-1.131-.314 0 0-.07 1.087.837 1.888l.731.737c-.223.019-.469.015-.64-.06 0 0 .151.644.738 1.159l1.024 1.03a5.305 5.305 0 0 1-3.107.692L10.018 20c2.136 0 4.272-.115 6.405-.342a3.642 3.642 0 0 0 3.235-3.235c.253-2.373.365-4.75.338-7.126Z" fill="url(#d)"/><path d="M16.198 6.147c-.442.232-1.109.339-1.33.37l-.005-.032c.751-.464.981-1.339.981-1.339a4.953 4.953 0 0 1-1.184.495 3.416 3.416 0 0 1-.417.086A2.578 2.578 0 0 0 9.87 8.043c-.69-.01-3.177-.222-5.238-2.616 0 0-1.147 2.003.782 3.37 0 0-.782-.024-1.197-.317 0 0-.122 1.93 2.1 2.54 0 0-.78.196-1.172.024 0 0 .391 1.661 2.345 1.784 0 0-1.401 1.283-3.69 1.098a7.284 7.284 0 0 0 11.173-6.31l.002-.089-.001-.062c.744-.496 1.223-1.318 1.223-1.318Z" fill="#fff"/><defs><linearGradient id="a" x1="6.64" y1="2.812" x2="11.699" y2="13.635" gradientUnits="userSpaceOnUse"><stop stop-color="#00C3FF"/><stop offset="1" stop-color="#00B0ED"/></linearGradient><linearGradient id="b" x1="14.23" y1="12.269" x2="-14.828" y2="-3.318" gradientUnits="userSpaceOnUse"><stop stop-color="#00B0ED" stop-opacity="0"/><stop offset="1" stop-color="#00A2CE"/></linearGradient><linearGradient id="c" x1="10" y1="17.085" x2="10" y2="19.706" gradientUnits="userSpaceOnUse"><stop stop-color="#00B0ED" stop-opacity="0"/><stop offset="1" stop-color="#00A2CE"/></linearGradient><linearGradient id="d" x1="19.118" y1="18.831" x2="9.348" y2="9.061" gradientUnits="userSpaceOnUse"><stop stop-color="#00B0ED" stop-opacity="0"/><stop offset="1" stop-color="#00A2CE"/></linearGradient></defs></svg>